<?xml version="1.0" standalone="no"?>
<!DOCTYPE svg PUBLIC "-//W3C//DTD SVG 20010904//EN"
 "http://www.w3.org/TR/2001/REC-SVG-20010904/DTD/svg10.dtd">
<svg version="1.0" xmlns="http://www.w3.org/2000/svg"
 width="1235.000000pt" height="1235.000000pt" viewBox="0 0 1235.000000 1235.000000"
 preserveAspectRatio="xMidYMid meet">
<metadata>
Created by potrace 1.14, written by Peter Selinger 2001-2017
</metadata>
<g transform="translate(0.000000,1235.000000) scale(0.100000,-0.100000)"
fill="#000000" stroke="none">
<path d="M6017 10393 c-4 -4 -38 -8 -75 -9 -118 -4 -284 -14 -291 -18 -3 -2
-40 -7 -81 -10 -42 -4 -87 -9 -102 -11 -14 -3 -53 -7 -86 -9 -33 -2 -64 -6
-69 -8 -4 -3 -27 -6 -49 -7 -23 -1 -55 -3 -70 -5 -199 -26 -246 -33 -284 -41
-13 -2 -40 -7 -60 -10 -47 -7 -78 -13 -98 -19 -9 -3 -30 -8 -47 -11 -16 -3
-57 -12 -90 -20 -33 -9 -71 -18 -85 -21 -14 -2 -50 -12 -80 -21 -65 -19 -67
-20 -100 -28 -14 -3 -29 -7 -35 -9 -5 -1 -57 -17 -115 -36 -58 -18 -107 -34
-110 -35 -17 -3 -150 -50 -175 -60 -16 -8 -77 -32 -135 -55 -108 -43 -354
-162 -425 -206 -22 -13 -47 -27 -55 -31 -8 -4 -18 -11 -23 -17 -9 -12 -15 -5
-120 135 -95 127 -159 195 -247 263 -224 174 -502 223 -750 134 -117 -42 -192
-105 -262 -220 -98 -160 -121 -390 -59 -598 40 -135 73 -208 149 -325 56 -87
52 -82 156 -187 l86 -86 -29 -21 c-28 -20 -60 -28 -151 -36 -25 -2 -56 -6 -70
-9 -14 -4 -43 -8 -65 -11 -34 -3 -65 -8 -138 -19 -7 -1 -18 -6 -26 -10 -11 -7
-12 -6 -6 5 7 11 6 12 -6 3 -8 -6 -21 -11 -29 -11 -8 0 -32 -3 -52 -7 -21 -3
-55 -9 -75 -12 -50 -8 -72 -12 -110 -18 -18 -3 -48 -9 -65 -12 -18 -3 -42 -7
-53 -8 -11 -2 -60 -11 -110 -21 -140 -27 -149 -28 -167 -29 -10 0 -18 -3 -18
-6 0 -3 -10 -6 -22 -7 -27 -1 -80 -10 -127 -23 -19 -5 -37 -7 -40 -5 -2 3 -10
0 -17 -5 -6 -6 -18 -9 -25 -8 -8 2 -21 -18 -33 -52 -17 -48 -20 -82 -20 -265
0 -223 4 -259 35 -333 40 -93 44 -102 51 -102 5 0 8 -6 8 -14 0 -19 116 -136
134 -136 8 0 16 -5 18 -11 2 -5 10 -11 18 -13 8 -2 23 -6 33 -11 10 -4 33 -8
52 -8 35 -1 35 -2 35 -47 2 -148 25 -614 36 -730 2 -25 7 -70 9 -100 7 -70 11
-110 20 -185 4 -33 8 -76 10 -95 2 -19 4 -35 5 -35 2 0 4 -13 21 -120 14 -86
15 -93 54 -269 7 -30 35 -129 42 -146 3 -8 7 -19 9 -25 19 -78 145 -356 174
-385 21 -21 81 -122 81 -137 1 -10 -2 -56 -6 -103 -10 -121 -13 -173 -29 -480
-4 -72 -14 -299 -21 -480 -2 -47 -7 -213 -10 -370 -4 -163 -11 -293 -17 -304
-12 -22 -20 -314 -21 -766 -1 -253 2 -374 18 -685 2 -27 3 -62 4 -77 1 -19 21
-49 63 -95 725 -783 1636 -1365 2653 -1694 l150 -49 1766 0 1766 0 116 35
c713 216 1481 633 2082 1129 306 253 625 574 858 862 l57 71 4 469 c4 353 2
472 -7 483 -14 16 -13 0 -21 496 -9 532 -18 877 -31 1145 -2 52 -7 149 -10
215 -3 66 -8 127 -10 136 -3 9 20 46 54 90 33 41 68 90 78 108 10 19 24 42 31
51 17 20 111 225 115 248 1 9 6 23 10 29 13 22 68 206 69 233 0 8 5 21 11 28
5 6 7 12 4 12 -3 0 -1 15 4 33 5 17 12 46 14 62 3 17 10 53 15 80 5 28 12 66
15 85 3 19 7 46 10 60 9 49 16 105 31 250 3 30 7 69 9 85 2 17 6 73 10 125 3
52 8 118 10 145 8 102 19 372 24 576 1 33 3 36 34 37 50 3 60 6 100 30 21 12
41 22 45 22 13 0 93 93 119 139 15 25 32 49 38 53 5 4 7 8 2 8 -4 0 -1 12 7
28 32 64 43 156 41 348 -2 188 -2 189 -32 255 -17 37 -37 70 -44 74 -8 6 -10
4 -4 -6 7 -12 6 -12 -7 -1 -9 7 -20 12 -24 10 -5 -1 -22 1 -39 5 -62 15 -81
19 -110 22 -16 1 -30 4 -30 5 0 3 -44 12 -127 26 -48 7 -70 12 -98 18 -14 4
-38 8 -55 11 -83 11 -127 19 -174 29 -12 3 -42 8 -65 11 -43 5 -81 12 -81 15
0 1 -16 3 -35 5 -19 2 -57 7 -85 11 -27 4 -63 8 -80 8 -16 1 -32 4 -35 7 -3 4
-30 9 -60 13 -124 14 -142 18 -171 38 l-24 16 22 28 c13 16 30 43 39 59 9 17
20 32 23 35 28 23 168 292 187 360 2 8 14 49 25 90 17 57 22 104 22 195 1 134
-2 155 -31 239 -42 115 -131 227 -233 292 -43 27 -124 62 -164 70 -11 2 -33 7
-50 10 -75 16 -265 7 -343 -15 -18 -5 -36 -11 -40 -12 -42 -10 -131 -50 -188
-84 -110 -65 -238 -186 -349 -331 -38 -49 -72 -93 -76 -98 -5 -5 -42 10 -86
36 -43 24 -85 48 -93 51 -8 4 -28 16 -45 26 -16 11 -37 20 -47 20 -9 1 -18 5
-20 9 -13 33 -678 304 -828 337 -21 5 -98 27 -110 32 -8 3 -19 7 -25 8 -5 2
-30 8 -55 15 -25 7 -52 14 -60 15 -8 2 -40 10 -70 19 -60 16 -347 76 -395 83
-16 2 -41 6 -55 8 -63 11 -212 33 -280 40 -25 3 -58 7 -75 10 -111 15 -325 31
-522 39 -44 2 -86 7 -92 10 -6 4 -11 2 -11 -5 0 -7 -4 -8 -12 -2 -15 11 -397
11 -415 0 -6 -4 -13 -2 -15 4 -2 5 -7 7 -11 2z m-4435 -2340 c-33 -66 -50
-106 -81 -188 l-30 -80 -1 75 c-1 41 -3 104 -4 138 0 35 1 68 4 72 5 8 27 12
98 18 l33 3 -19 -38z m9599 15 c5 -79 5 -77 -12 -60 -9 10 -15 19 -13 21 2 3
-3 15 -11 28 -15 22 -14 23 10 23 14 0 25 -6 26 -12z"/>
</g>
</svg>
